<svg width="17" height="24" viewBox="0 0 17 24" fill="none" xmlns="http://www.w3.org/2000/svg">
<path d="M8.49996 0.416748C3.82371 0.416748 0.041626 4.19883 0.041626 8.87508C0.041626 13.9138 5.38246 20.8617 7.58163 23.508C8.06496 24.088 8.94705 24.088 9.43038 23.508C11.6175 20.8617 16.9583 13.9138 16.9583 8.87508C16.9583 4.19883 13.1762 0.416748 8.49996 0.416748ZM8.49996 11.8959C6.83246 11.8959 5.47913 10.5426 5.47913 8.87508C5.47913 7.20758 6.83246 5.85425 8.49996 5.85425C10.1675 5.85425 11.5208 7.20758 11.5208 8.87508C11.5208 10.5426 10.1675 11.8959 8.49996 11.8959Z" fill="#1C1C1C"/>
</svg>
